<svg width="9" height="15" viewBox="0 0 9 15" fill="none" xmlns="http://www.w3.org/2000/svg">
<path d="M8.66343 13.0866C8.83955 13.2627 8.9385 13.5016 8.9385 13.7506C8.9385 13.9997 8.83955 14.2386 8.66343 14.4147C8.48731 14.5908 8.24844 14.6898 7.99937 14.6898C7.7503 14.6898 7.51143 14.5908 7.33531 14.4147L1.08531 8.16471C0.997909 8.07761 0.928562 7.97412 0.881245 7.86017C0.833927 7.74621 0.80957 7.62404 0.80957 7.50065C0.80957 7.37726 0.833927 7.25509 0.881245 7.14113C0.928562 7.02718 0.997909 6.92368 1.08531 6.83659L7.33531 0.586587C7.51143 0.410467 7.7503 0.311523 7.99937 0.311523C8.24844 0.311523 8.48731 0.410467 8.66343 0.586587C8.83955 0.762708 8.9385 1.00158 8.9385 1.25065C8.9385 1.49972 8.83955 1.73859 8.66343 1.91471L3.07828 7.49987L8.66343 13.0866Z" fill="black"/>
<path d="M8.66343 13.0866C8.83955 13.2627 8.9385 13.5016 8.9385 13.7506C8.9385 13.9997 8.83955 14.2386 8.66343 14.4147C8.48731 14.5908 8.24844 14.6898 7.99937 14.6898C7.7503 14.6898 7.51143 14.5908 7.33531 14.4147L1.08531 8.16471C0.997909 8.07761 0.928562 7.97412 0.881245 7.86017C0.833927 7.74621 0.80957 7.62404 0.80957 7.50065C0.80957 7.37726 0.833927 7.25509 0.881245 7.14113C0.928562 7.02718 0.997909 6.92368 1.08531 6.83659L7.33531 0.586587C7.51143 0.410467 7.7503 0.311523 7.99937 0.311523C8.24844 0.311523 8.48731 0.410467 8.66343 0.586587C8.83955 0.762708 8.9385 1.00158 8.9385 1.25065C8.9385 1.49972 8.83955 1.73859 8.66343 1.91471L3.07828 7.49987L8.66343 13.0866Z" fill="#022441" fill-opacity="0.9"/>
</svg>
