<svg width="50" height="50" viewBox="0 0 50 50" fill="none" xmlns="http://www.w3.org/2000/svg">
<path d="M24.9999 49.6155C38.5946 49.6155 49.6153 38.5949 49.6153 25.0002C49.6153 11.4054 38.5946 0.384766 24.9999 0.384766C11.4052 0.384766 0.384521 11.4054 0.384521 25.0002C0.384521 38.5949 11.4052 49.6155 24.9999 49.6155Z" fill="#FFF6EB"/>
<path d="M30.2308 24.1538C30.2308 25.3846 29.2308 26.7692 28.1539 27.923C26.6924 29.4615 25.0001 30.5384 25.0001 30.5384C25.0001 30.5384 24.3847 30.0769 23.5385 29.4615C23.0001 29 22.3847 28.5384 21.8462 27.923C20.7693 26.7692 19.7693 25.3846 19.7693 24.1538V24C19.8462 23 20.3847 22.1538 21.2308 21.6153C21.5385 21.4615 21.7693 21.3077 22.077 21.3077C22.3077 21.3077 22.4616 21.2307 22.6924 21.2307H23.3077C24.0001 21.3846 24.6154 21.7692 25.077 22.3077C25.5385 21.6923 26.3077 21.2307 27.1539 21.1538H27.4616C27.6924 21.1538 27.8462 21.1538 28.077 21.2307C28.3847 21.3077 28.6924 21.3846 28.9231 21.5384C29.3077 21.7692 29.6154 22 29.8462 22.3846C30.077 22.923 30.2308 23.4615 30.2308 24.1538Z" fill="#BA2C65"/>
<path d="M25.0001 31.2309L24.6924 31.0001C24.6924 31.0001 24.0001 30.5386 23.1539 29.8463C22.4616 29.3078 21.9231 28.7693 21.3847 28.2309C19.9231 26.6924 19.1539 25.3078 19.1539 24.077V23.8463C19.2308 22.6924 19.8462 21.6155 20.8462 21.0001C21.2308 20.7693 21.5385 20.6924 21.9231 20.6155C22.3078 20.5386 22.6924 20.5386 23.0001 20.5386C23.077 20.5386 23.2308 20.5386 23.3078 20.6155C23.9231 20.6924 24.5385 21.0001 25.0001 21.4617C25.5385 21.0001 26.2308 20.6924 27.0001 20.6155C27.3078 20.6155 27.6924 20.6155 28.0001 20.6924C28.3847 20.7693 28.7693 20.9232 29.077 21.077C29.5385 21.3078 29.8462 21.6924 30.1539 22.077C30.6154 22.6155 30.8462 23.3847 30.8462 24.154C30.8462 25.3847 30.077 26.7693 28.5385 28.3078C27.077 29.8463 25.3847 31.0001 25.3078 31.0001L25.0001 31.2309ZM22.6924 21.7693C22.5385 21.7693 22.3847 21.7693 22.2308 21.8463C22.0001 21.9232 21.7693 22.0001 21.5385 22.154C20.8462 22.5386 20.4616 23.2309 20.3847 24.077V24.2309C20.3847 25.154 21.077 26.3078 22.3078 27.6155C22.7693 28.077 23.3078 28.6155 23.9231 29.077C24.3847 29.4617 24.7693 29.7693 25.0001 29.9232C25.5385 29.5386 26.6924 28.6155 27.6924 27.6155C29.0001 26.3078 29.6154 25.154 29.6154 24.2309C29.6154 23.6924 29.4616 23.2309 29.1539 22.8463C28.9231 22.5386 28.6924 22.3847 28.4616 22.154C28.2308 22.0001 28.0001 21.9232 27.7693 21.8463C27.5385 21.7693 27.3078 21.7693 27.077 21.8463C26.3847 21.9232 25.8462 22.2309 25.3847 22.7693L24.9231 23.3847L24.4616 22.7693C24.077 22.3078 23.6154 22.0001 23.077 21.9232H22.8462C22.8462 21.7693 22.7693 21.7693 22.6924 21.7693ZM12.6154 37.3847C5.7693 30.5386 5.7693 19.4617 12.6154 12.6155L13.4616 13.4617C7.07699 19.8463 7.07699 30.2309 13.4616 36.6155L12.6154 37.3847ZM37.3847 37.3847L36.5385 36.5386C42.9231 30.154 42.9231 19.7693 36.5385 13.3847L37.3847 12.5386C44.2308 19.4617 44.2308 30.5386 37.3847 37.3847Z" fill="#BA2C65"/>
<path d="M15.5381 34.4619C10.3073 29.2311 10.3073 20.7696 15.5381 15.5388L16.3842 16.385C11.615 21.1542 11.615 28.9235 16.3842 33.6927L15.5381 34.4619ZM34.4611 34.4619L33.615 33.6158C38.3842 28.8465 38.3842 21.0773 33.615 16.3081L34.4611 15.4619C39.6919 20.7696 39.6919 29.2311 34.4611 34.4619Z" fill="#BA2C65"/>
<path d="M18.7692 31.2308C15.3077 27.7693 15.3077 22.2308 18.7692 18.7693L19.6154 19.6155C16.6154 22.6155 16.6154 27.4616 19.6154 30.4616L18.7692 31.2308ZM31.2308 31.2308L30.3846 30.3847C33.3846 27.3847 33.3846 22.5385 30.3846 19.5385L31.2308 18.6924C34.6923 22.2308 34.6923 27.7693 31.2308 31.2308Z" fill="#BA2C65"/>
</svg>
