<svg width="223" height="60" viewBox="0 0 223 60" fill="none" xmlns="http://www.w3.org/2000/svg">
<g clip-path="url(#clip0_2544_64157)">
<path d="M30.4993 59.5383C46.8129 59.5383 60.0377 46.3135 60.0377 29.9999C60.0377 13.6862 46.8129 0.461426 30.4993 0.461426C14.1856 0.461426 0.960815 13.6862 0.960815 29.9999C0.960815 46.3135 14.1856 59.5383 30.4993 59.5383Z" fill="#BA2C65"/>
<path d="M36.7765 28.9843C36.7765 30.4612 35.5765 32.1227 34.2842 33.5074C32.5303 35.3535 30.4996 36.6458 30.4996 36.6458C30.4996 36.6458 29.7611 36.092 28.7457 35.3535C28.0996 34.7997 27.3611 34.2458 26.715 33.5074C25.4227 32.1227 24.2227 30.4612 24.2227 28.9843V28.7997C24.315 27.5997 24.9611 26.5843 25.9765 25.9381C26.3457 25.7535 26.6227 25.5689 26.9919 25.5689C27.2688 25.5689 27.4534 25.4766 27.7303 25.4766H28.4688C29.2996 25.6612 30.038 26.1227 30.5919 26.7689C31.1457 26.0304 32.0688 25.4766 33.0842 25.3843H33.4534C33.7303 25.3843 33.915 25.3843 34.1919 25.4766C34.5611 25.5689 34.9303 25.6612 35.2073 25.8458C35.6688 26.1227 36.038 26.3997 36.315 26.8612C36.5919 27.5074 36.7765 28.1535 36.7765 28.9843Z" fill="#FFF6EB"/>
<path d="M30.4998 37.4767L30.1305 37.1997C30.1305 37.1997 29.2998 36.6459 28.2844 35.8151C27.4536 35.169 26.8075 34.5228 26.1613 33.8767C24.4075 32.0305 23.4844 30.369 23.4844 28.8921V28.6151C23.5767 27.2305 24.3151 25.9382 25.5151 25.1997C25.9767 24.9228 26.3459 24.8305 26.8075 24.7382C27.269 24.6459 27.7305 24.6459 28.0998 24.6459C28.1921 24.6459 28.3767 24.6459 28.469 24.7382C29.2075 24.8305 29.9459 25.1997 30.4998 25.7536C31.1459 25.1997 31.9767 24.8305 32.8998 24.7382C33.269 24.7382 33.7305 24.7382 34.0998 24.8305C34.5613 24.9228 35.0228 25.1074 35.3921 25.2921C35.9459 25.569 36.3151 26.0305 36.6844 26.4921C37.2382 27.1382 37.5151 28.0613 37.5151 28.9844C37.5151 30.4613 36.5921 32.1228 34.7459 33.969C32.9921 35.8151 30.9613 37.1997 30.869 37.1997L30.4998 37.4767ZM27.7305 26.1228C27.5459 26.1228 27.3613 26.1228 27.1767 26.2151C26.8998 26.3074 26.6228 26.3997 26.3459 26.5844C25.5151 27.0459 25.0536 27.8767 24.9613 28.8921V29.0767C24.9613 30.1844 25.7921 31.569 27.269 33.1382C27.8228 33.6921 28.469 34.3382 29.2075 34.8921C29.7613 35.3536 30.2228 35.7228 30.4998 35.9074C31.1459 35.4459 32.5305 34.3382 33.7305 33.1382C35.2998 31.569 36.0382 30.1844 36.0382 29.0767C36.0382 28.4305 35.8536 27.8767 35.4844 27.4151C35.2075 27.0459 34.9305 26.8613 34.6536 26.5844C34.3767 26.3997 34.0998 26.3074 33.8228 26.2151C33.5459 26.1228 33.269 26.1228 32.9921 26.2151C32.1613 26.3074 31.5151 26.6767 30.9613 27.3228L30.4075 28.0613L29.8536 27.3228C29.3921 26.769 28.8382 26.3997 28.1921 26.3074H27.9151C27.9151 26.1228 27.8228 26.1228 27.7305 26.1228ZM15.6382 44.8613C7.42284 36.6459 7.42284 23.3536 15.6382 15.1382L16.6536 16.1536C8.99207 23.8151 8.99207 36.2767 16.6536 43.9382L15.6382 44.8613ZM45.3613 44.8613L44.3459 43.8459C52.0075 36.1844 52.0075 23.7228 44.3459 16.0613L45.3613 15.0459C53.5767 23.3536 53.5767 36.6459 45.3613 44.8613Z" fill="#FFF6EB"/>
<path d="M19.1452 41.3537C12.8683 35.0768 12.8683 24.9229 19.1452 18.646L20.1606 19.6614C14.4375 25.3845 14.4375 34.7076 20.1606 40.4306L19.1452 41.3537ZM41.8529 41.3537L40.8375 40.3383C46.5606 34.6152 46.5606 25.2922 40.8375 19.5691L41.8529 18.5537C48.1298 24.9229 48.1298 35.0768 41.8529 41.3537Z" fill="#FFF6EB"/>
<path d="M23.0226 37.4768C18.8688 33.323 18.8688 26.6768 23.0226 22.523L24.038 23.5384C20.438 27.1384 20.438 32.9537 24.038 36.5537L23.0226 37.4768ZM37.9765 37.4768L36.9611 36.4614C40.5611 32.8614 40.5611 27.046 36.9611 23.446L37.9765 22.4307C42.1303 26.6768 42.1303 33.323 37.9765 37.4768Z" fill="#FFF6EB"/>
</g>
<path d="M81.9726 22.7909L78.1045 42H73.9743L77.8423 22.7909H71.5158L72.2369 19.1196H88.9547L88.2336 22.7909H81.9726ZM92.6466 24.8888L90.5814 35.1818C90.4503 35.8155 90.3847 36.3946 90.3847 36.9191C90.3847 37.5747 90.5268 38.0883 90.8109 38.4598C91.1168 38.8313 91.5976 39.017 92.2532 39.017C92.8214 39.017 93.3349 38.8859 93.7939 38.6237C94.2746 38.3396 94.7117 37.9681 95.1051 37.5091C96.0229 36.4602 96.6129 35.2582 96.8752 33.9033L98.6781 24.8888H102.644L99.8582 38.7548H101.923L101.3 42H98.4814C97.6947 42 97.05 41.7924 96.5474 41.3772C96.0666 40.962 95.8262 40.3719 95.8262 39.6071C95.8262 39.4322 95.8372 39.2574 95.859 39.0826C95.8809 38.9078 95.9027 38.7548 95.9246 38.6237L96.0229 38.1975H95.8262C95.1925 39.5306 94.4495 40.5686 93.5972 41.3116C92.7449 42.0328 91.685 42.3934 90.4175 42.3934C89.0626 42.3934 88.0355 42 87.3362 41.2133C86.6369 40.4266 86.2872 39.312 86.2872 37.8697C86.2872 37.4764 86.3091 37.0939 86.3528 36.7224C86.3965 36.3291 86.4621 35.9138 86.5495 35.4768L88.6802 24.8888H92.6466ZM103.666 42L107.108 24.8888H111.075L110.321 28.6913H110.485C111.118 27.3364 111.872 26.2984 112.746 25.5772C113.642 24.8561 114.746 24.4955 116.057 24.4955C117.434 24.4955 118.472 24.8888 119.171 25.6756C119.892 26.4623 120.253 27.5768 120.253 29.0191C120.253 29.3906 120.22 29.7731 120.155 30.1664C120.111 30.5379 120.045 30.9422 119.958 31.3793L118.483 38.7548H120.384L119.728 42H116.975C116.188 42 115.565 41.8033 115.107 41.41C114.648 40.9947 114.418 40.4156 114.418 39.6726C114.418 39.3667 114.451 39.0607 114.516 38.7548L115.926 31.7071C116.057 31.0952 116.123 30.4942 116.123 29.9042C116.123 29.2704 115.97 28.7787 115.664 28.4291C115.358 28.0576 114.844 27.8718 114.123 27.8718C113.555 27.8718 113.03 28.0139 112.55 28.298C112.069 28.5602 111.632 28.9208 111.238 29.3797C110.801 29.8823 110.419 30.4396 110.091 31.0515C109.785 31.6634 109.567 32.308 109.436 32.9855L107.633 42H103.666ZM129.532 42.3934C127.216 42.3934 125.468 41.7487 124.287 40.4593C123.129 39.17 122.55 37.378 122.55 35.0834C122.55 33.7067 122.769 32.3845 123.206 31.117C123.643 29.8277 124.255 28.6913 125.041 27.7079C125.85 26.7245 126.812 25.9487 127.926 25.3805C129.062 24.7905 130.33 24.4955 131.729 24.4955C132.406 24.4955 133.094 24.5829 133.794 24.7577C134.493 24.9107 135.127 25.1729 135.695 25.5444C136.263 25.8941 136.733 26.3749 137.104 26.9868C137.476 27.5987 137.662 28.3417 137.662 29.2158C137.662 31.0078 136.777 32.4064 135.007 33.4116C133.258 34.4169 130.45 34.9632 126.582 35.0506C126.517 35.4877 126.484 35.8046 126.484 36.0013C126.484 36.941 126.746 37.6949 127.27 38.2631C127.795 38.8313 128.647 39.1154 129.827 39.1154C130.68 39.1154 131.455 38.9296 132.155 38.5581C132.854 38.1866 133.575 37.5419 134.318 36.6241L136.777 38.6564C135.706 40.0332 134.58 41.0057 133.4 41.5739C132.242 42.1202 130.953 42.3934 129.532 42.3934ZM131.466 27.5768C130.374 27.5768 129.445 27.9374 128.68 28.6585C127.915 29.3797 127.412 30.3631 127.172 31.6087L127.008 32.4282C128.407 32.3627 129.543 32.2534 130.417 32.1004C131.313 31.9256 132.002 31.718 132.482 31.4776C132.985 31.2372 133.324 30.9531 133.499 30.6253C133.673 30.2975 133.761 29.926 133.761 29.5108C133.761 29.1175 133.684 28.8006 133.531 28.5602C133.4 28.298 133.225 28.1013 133.007 27.9702C132.788 27.8172 132.537 27.7188 132.253 27.6751C131.991 27.6096 131.729 27.5768 131.466 27.5768ZM144.175 22.3976C143.454 22.3976 142.929 22.2555 142.601 21.9714C142.274 21.6873 142.11 21.3158 142.11 20.8569C142.11 20.5291 142.164 20.1139 142.274 19.6113C142.405 19.0649 142.656 18.5951 143.028 18.2017C143.421 17.7865 144.088 17.5789 145.027 17.5789C145.748 17.5789 146.273 17.7209 146.601 18.005C146.928 18.2891 147.092 18.6606 147.092 19.1196C147.092 19.4474 147.038 19.8626 146.928 20.3652C146.797 20.9115 146.535 21.3923 146.142 21.8075C145.77 22.2009 145.115 22.3976 144.175 22.3976ZM141.487 42C140.657 42 139.99 41.7815 139.487 41.3444C139.007 40.8855 138.766 40.2845 138.766 39.5415C138.766 39.323 138.799 39.0498 138.865 38.722L141.618 24.8888H145.584L142.831 38.7548H144.896L144.24 42H141.487ZM146.612 42L150.054 24.8888H154.02L153.266 28.6913H153.43C154.064 27.3364 154.818 26.2984 155.692 25.5772C156.588 24.8561 157.692 24.4955 159.003 24.4955C160.38 24.4955 161.418 24.8888 162.117 25.6756C162.838 26.4623 163.199 27.5768 163.199 29.0191C163.199 29.3906 163.166 29.7731 163.1 30.1664C163.057 30.5379 162.991 30.9422 162.904 31.3793L161.428 38.7548H163.33L162.674 42H159.921C159.134 42 158.511 41.8033 158.052 41.41C157.593 40.9947 157.364 40.4156 157.364 39.6726C157.364 39.3667 157.397 39.0607 157.462 38.7548L158.872 31.7071C159.003 31.0952 159.068 30.4942 159.068 29.9042C159.068 29.2704 158.915 28.7787 158.609 28.4291C158.303 28.0576 157.79 27.8718 157.069 27.8718C156.501 27.8718 155.976 28.0139 155.495 28.298C155.015 28.5602 154.577 28.9208 154.184 29.3797C153.747 29.8823 153.365 30.4396 153.037 31.0515C152.731 31.6634 152.512 32.308 152.381 32.9855L150.578 42H146.612ZM168.315 42C167.463 42 166.785 41.7815 166.282 41.3444C165.802 40.8855 165.561 40.2845 165.561 39.5415C165.561 39.4104 165.561 39.3011 165.561 39.2137C165.583 39.1044 165.616 38.9515 165.66 38.7548L169.855 17.7428H173.822L169.626 38.7548H171.822L171.199 42H168.315ZM180.521 42.3934C178.511 42.3934 176.904 41.7815 175.702 40.5577C174.5 39.3339 173.899 37.5747 173.899 35.2801C173.899 33.7722 174.118 32.3627 174.555 31.0515C174.992 29.7403 175.604 28.6039 176.391 27.6424C177.177 26.659 178.106 25.8941 179.177 25.3478C180.248 24.7796 181.428 24.4955 182.717 24.4955C184.728 24.4955 186.334 25.1074 187.536 26.3312C188.738 27.5549 189.339 29.3141 189.339 31.6087C189.339 33.1166 189.12 34.5262 188.683 35.8374C188.246 37.1486 187.634 38.2959 186.848 39.2793C186.061 40.2408 185.121 41.0057 184.028 41.5739C182.958 42.1202 181.789 42.3934 180.521 42.3934ZM180.75 39.1154C181.734 39.1154 182.564 38.7548 183.242 38.0336C183.941 37.3125 184.422 36.2635 184.684 34.8867L185.274 32.0349C185.318 31.8163 185.351 31.6306 185.372 31.4776C185.394 31.3028 185.405 31.0952 185.405 30.8548C185.405 29.937 185.154 29.1939 184.651 28.6258C184.171 28.0576 183.449 27.7735 182.488 27.7735C181.504 27.7735 180.663 28.1341 179.964 28.8552C179.286 29.5764 178.816 30.6253 178.554 32.0021L177.964 34.8867C177.92 35.0616 177.888 35.2364 177.866 35.4112C177.844 35.586 177.833 35.7937 177.833 36.034C177.833 36.9519 178.073 37.6949 178.554 38.2631C179.057 38.8313 179.789 39.1154 180.75 39.1154ZM193.444 42L191.182 24.8888H195.116L195.87 31.9038L196.427 38.3942H196.623L199.574 31.9038L203.048 24.8888H207.31L198.262 42H193.444ZM213.247 42.3934C210.93 42.3934 209.182 41.7487 208.002 40.4593C206.844 39.17 206.265 37.378 206.265 35.0834C206.265 33.7067 206.483 32.3845 206.92 31.117C207.357 29.8277 207.969 28.6913 208.756 27.7079C209.564 26.7245 210.526 25.9487 211.641 25.3805C212.777 24.7905 214.044 24.4955 215.443 24.4955C216.12 24.4955 216.809 24.5829 217.508 24.7577C218.207 24.9107 218.841 25.1729 219.409 25.5444C219.978 25.8941 220.447 26.3749 220.819 26.9868C221.19 27.5987 221.376 28.3417 221.376 29.2158C221.376 31.0078 220.491 32.4064 218.721 33.4116C216.973 34.4169 214.165 34.9632 210.297 35.0506C210.231 35.4877 210.198 35.8046 210.198 36.0013C210.198 36.941 210.46 37.6949 210.985 38.2631C211.509 38.8313 212.362 39.1154 213.542 39.1154C214.394 39.1154 215.17 38.9296 215.869 38.5581C216.568 38.1866 217.29 37.5419 218.033 36.6241L220.491 38.6564C219.42 40.0332 218.295 41.0057 217.115 41.5739C215.957 42.1202 214.667 42.3934 213.247 42.3934ZM215.181 27.5768C214.088 27.5768 213.159 27.9374 212.394 28.6585C211.63 29.3797 211.127 30.3631 210.887 31.6087L210.723 32.4282C212.121 32.3627 213.258 32.2534 214.132 32.1004C215.028 31.9256 215.716 31.718 216.197 31.4776C216.7 31.2372 217.038 30.9531 217.213 30.6253C217.388 30.2975 217.475 29.926 217.475 29.5108C217.475 29.1175 217.399 28.8006 217.246 28.5602C217.115 28.298 216.94 28.1013 216.721 27.9702C216.503 27.8172 216.252 27.7188 215.967 27.6751C215.705 27.6096 215.443 27.5768 215.181 27.5768Z" fill="#022441"/>
<defs>
<clipPath id="clip0_2544_64157">
<rect width="60" height="60" fill="white" transform="translate(0.5)"/>
</clipPath>
</defs>
</svg>
