<svg width="47" height="47" viewBox="0 0 47 47" fill="none" xmlns="http://www.w3.org/2000/svg">
<mask id="mask0_977_50658" style="mask-type:alpha" maskUnits="userSpaceOnUse" x="0" y="0" width="47" height="47">
<rect x="0.582031" y="0.587891" width="45.8359" height="45.8359" fill="#D9D9D9"/>
</mask>
<g mask="url(#mask0_977_50658)">
<path d="M19.6804 34.965C21.2719 34.965 22.6247 34.408 23.7388 33.2939C24.8528 32.1798 25.4099 30.827 25.4099 29.2355V15.8667H31.1394V12.047H22.5451V24.27C22.0995 24.0153 21.638 23.8243 21.1605 23.697C20.683 23.5697 20.1897 23.506 19.6804 23.506C18.0889 23.506 16.7361 24.0631 15.622 25.1771C14.5079 26.2912 13.9509 27.644 13.9509 29.2355C13.9509 30.827 14.5079 32.1798 15.622 33.2939C16.7361 34.408 18.0889 34.965 19.6804 34.965ZM23.5 42.6043C20.8581 42.6043 18.3753 42.103 16.0517 41.1003C13.7281 40.0977 11.7068 38.7369 9.98799 37.0181C8.26914 35.2992 6.90839 33.278 5.90573 30.9544C4.90306 28.6307 4.40173 26.148 4.40173 23.506C4.40173 20.8641 4.90306 18.3813 5.90573 16.0577C6.90839 13.7341 8.26914 11.7128 9.98799 9.99397C11.7068 8.27512 13.7281 6.91437 16.0517 5.91171C18.3753 4.90905 20.8581 4.40771 23.5 4.40771C26.142 4.40771 28.6248 4.90905 30.9484 5.91171C33.272 6.91437 35.2932 8.27512 37.0121 9.99397C38.7309 11.7128 40.0917 13.7341 41.0944 16.0577C42.097 18.3813 42.5983 20.8641 42.5983 23.506C42.5983 26.148 42.097 28.6307 41.0944 30.9544C40.0917 33.278 38.7309 35.2992 37.0121 37.0181C35.2932 38.7369 33.272 40.0977 30.9484 41.1003C28.6248 42.103 26.142 42.6043 23.5 42.6043ZM23.5 38.7847C27.7653 38.7847 31.3781 37.3046 34.3383 34.3443C37.2986 31.3841 38.7787 27.7713 38.7787 23.506C38.7787 19.2407 37.2986 15.628 34.3383 12.6677C31.3781 9.7075 27.7653 8.22738 23.5 8.22738C19.2348 8.22738 15.622 9.7075 12.6618 12.6677C9.70151 15.628 8.22139 19.2407 8.22139 23.506C8.22139 27.7713 9.70151 31.3841 12.6618 34.3443C15.622 37.3046 19.2348 38.7847 23.5 38.7847Z" fill="white"/>
</g>
</svg>
